<svg xmlns="http://www.w3.org/2000/svg" width="8" height="13" viewBox="0 0 8 13" fill="none">
    <g clip-path="url(#clip0_2_295)">
        <path d="M13.4214 0.588019C13.3399 0.600219 13.2616 0.891465 13.1041 1.04319C12.989 1.15269 12.8452 1.14584 12.7689 1.28121C12.7399 1.33179 12.7493 1.41812 12.7164 1.50101C12.6522 1.66678 12.4258 1.6816 12.4258 1.86223C12.425 2.0573 12.6146 2.09455 12.7787 2.23296C12.9067 2.34437 12.9193 2.42117 13.0743 2.47516C13.2067 2.51891 13.4037 2.37592 13.5811 2.42726C13.7268 2.46948 13.8663 2.49988 13.8992 2.64514C13.9281 2.77898 13.8972 2.98658 13.7206 2.96264C13.661 2.95617 13.4029 2.87175 13.0857 2.90445C12.7031 2.94667 12.2664 3.06794 12.2237 3.48206C12.2002 3.71361 12.4951 3.98663 12.7798 3.93111C12.9768 3.89345 12.8836 3.66801 12.9909 3.55848C13.1315 3.41819 13.9281 4.04823 14.6687 4.04823C14.9805 4.04823 15.2123 3.97181 15.4427 3.73758C15.4642 3.7197 15.4904 3.6813 15.5237 3.679C15.5551 3.6813 15.6099 3.71132 15.6279 3.72426C16.2244 4.18966 16.6752 5.12317 18.8672 5.1342C19.1754 5.1357 19.5267 5.27869 19.8134 5.53268C20.0692 5.76235 20.2188 6.11937 20.3641 6.48175C20.5834 7.02551 20.9766 7.55443 21.5727 8.14303C21.6052 8.17458 22.0959 8.54495 22.1351 8.57271C22.1414 8.5765 22.1774 8.66016 22.1649 8.70691C22.1504 9.05978 22.0975 10.086 22.8855 10.1324C23.0782 10.1419 23.0277 10.0104 23.0277 9.91987C23.0273 9.74116 22.9936 9.56359 23.0907 9.3807C23.2235 9.129 22.8091 9.013 22.8213 8.46888C22.8299 8.06317 22.479 8.13236 22.3008 7.82324C22.1982 7.64414 22.1069 7.5491 22.1136 7.33005C22.1535 6.09735 21.8433 5.28742 21.6886 5.08856C21.568 4.93837 21.4681 4.87868 21.5786 4.80908C22.2362 4.3874 22.3854 3.99498 22.3854 3.99498C22.7351 3.19687 23.0496 2.46792 23.4832 2.14704C23.5705 2.08085 23.7945 1.91851 23.932 1.85462C24.3365 1.66943 24.5496 1.55728 24.6671 1.44623C24.8531 1.27019 25 0.903256 24.8218 0.680816C24.6001 0.406274 24.2167 0.624156 24.0475 0.721483C22.8385 1.41812 22.6603 2.64702 22.2416 3.35277C21.9076 3.91665 21.3643 4.33074 20.8787 4.36458C20.5145 4.39081 20.122 4.31933 19.7312 4.15279C18.7807 3.74822 18.2605 3.22577 18.138 3.13339C17.8826 2.94211 15.9001 1.05269 14.2939 0.975501C14.2939 0.975501 14.0946 0.588047 14.0445 0.581578C13.9269 0.567113 13.8067 0.813134 13.7206 0.841683C13.6395 0.867884 13.5032 0.57511 13.4214 0.588047V0.588019ZM6.35056 11.8648C6.19937 11.8614 6.07093 11.7409 6.07093 11.5918L6.07132 6.72777H4.42014V12.0895C4.42014 12.3523 4.63944 12.5667 4.9085 12.5667H7.79456C8.06556 12.5667 8.28217 12.3523 8.28217 12.0895V6.72777H6.63255L6.63098 11.5918C6.63098 11.7409 6.50251 11.8614 6.35056 11.8648ZM11.879 6.72777H9.37994C9.08426 6.72777 8.8434 6.96123 8.8434 7.25136V12.5667H10.4961V7.69095C10.4973 7.54151 10.6218 7.42325 10.7754 7.42325C10.9297 7.42325 11.0534 7.53884 11.0569 7.68677V12.5667H12.703V7.68672C12.705 7.53881 12.8288 7.42323 12.9827 7.42323C13.1354 7.42323 13.2615 7.54149 13.2627 7.69092V12.5667H14.9155V7.25136C14.9155 6.96123 14.6742 6.72777 14.3785 6.72777H11.879ZM2.21045 7.70118C2.21163 7.53881 2.07534 7.42323 1.93082 7.42323H1.6504V10.3765H1.93082C2.07652 10.3765 2.21166 10.264 2.21045 10.1024V7.70118ZM3.31843 11.0994H1.6504V12.5667H0V6.72777H3.32903C3.62704 6.72777 3.85967 6.96276 3.85967 7.25365V10.5735C3.85967 10.8648 3.61804 11.0994 3.31843 11.0994ZM20.5791 11.261C20.2474 11.261 19.9689 11.5393 19.9689 11.8766C19.9689 12.215 20.2474 12.4911 20.5897 12.4911C20.9292 12.4911 21.2042 12.215 21.2042 11.8766C21.2042 11.5386 20.9292 11.261 20.5896 11.261H20.5791ZM21.3224 11.8747C21.3224 12.2713 20.995 12.5937 20.5897 12.5937C20.18 12.5937 19.851 12.2736 19.851 11.8747C19.851 11.4834 20.18 11.1564 20.5775 11.1564C20.995 11.1564 21.3224 11.4736 21.3224 11.8747Z" fill="#1D1E20"/>
    </g>
    <defs>
        <clipPath id="clip0_2_295">
            <rect width="25" height="13" fill="white"/>
        </clipPath>
    </defs>
</svg>